HIERARCHY
ROOT hip
{
	OFFSET 0.000000 0.000000 0.000000 
	CHANNELS 6 Xposition Yposition Zposition Xrotation Zrotation Yrotation
	JOINT abdomen
	{
		OFFSET 0.000000 3.402643 0.000000 
		CHANNELS 3 Xrotation Zrotation Yrotation
		JOINT chest
		{
			OFFSET 0.000000 8.438565 -0.680529 
			CHANNELS 3 Xrotation Zrotation Yrotation
			JOINT neck
			{
				OFFSET 0.000000 10.207942 -0.272212 
				CHANNELS 3 Xrotation Zrotation Yrotation
				JOINT head
				{
					OFFSET 0.000000 3.130431 0.000000 
					CHANNELS 3 Xrotation Zrotation Yrotation
					End Site
					{
						OFFSET 0.000000 3.130435 0.000000 
					}
				}
			}
			JOINT lCollar
			{
				OFFSET 3.470700 6.669187 -0.816635 
				CHANNELS 3 Yrotation Zrotation Xrotation
				JOINT lShldr
				{
					OFFSET 3.198488 0.000000 0.000000 
					CHANNELS 3 Zrotation Yrotation Xrotation
					JOINT lForeArm
					{
						OFFSET 10.139888 0.000000 0.000000 
						CHANNELS 3 Yrotation Zrotation Xrotation
						JOINT lHand
						{
							OFFSET 8.370511 0.000000 0.000000 
							CHANNELS 3 Zrotation Yrotation Xrotation
							End Site
							{
								OFFSET 4.083176 0.000000 0.000000 
							}
						}
					}
				}
			}
			JOINT rCollar
			{
				OFFSET -3.470700 6.669187 -0.816635 
				CHANNELS 3 Yrotation Zrotation Xrotation
				JOINT rShldr
				{
					OFFSET -3.198488 0.000000 0.000000 
					CHANNELS 3 Zrotation Yrotation Xrotation
					JOINT rForeArm
					{
						OFFSET -10.139888 0.000000 0.000000 
						CHANNELS 3 Yrotation Zrotation Xrotation
						JOINT rHand
						{
							OFFSET -8.370511 0.000000 0.000000 
							CHANNELS 3 Zrotation Yrotation Xrotation
							End Site
							{
								OFFSET -4.083176 0.000000 0.000000 
							}
						}
					}
				}
			}
		}
	}
	JOINT lThigh
	{
		OFFSET 5.308129 -1.633274 1.361059 
		CHANNELS 3 Xrotation Zrotation Yrotation
		JOINT lShin
		{
			OFFSET -2.041588 -20.007561 0.000000 
			CHANNELS 3 Xrotation Zrotation Yrotation
			JOINT lFoot
			{
				OFFSET 0.000000 -19.190928 -1.224953 
				CHANNELS 3 Xrotation Yrotation Zrotation
				End Site
				{
					OFFSET 0.000000 -2.449906 4.627600 
				}
			}
		}
	}
	JOINT rThigh
	{
		OFFSET -5.308129 -1.633274 1.361059 
		CHANNELS 3 Xrotation Zrotation Yrotation
		JOINT rShin
		{
			OFFSET 2.041588 -20.007561 0.000000 
			CHANNELS 3 Xrotation Zrotation Yrotation
			JOINT rFoot
			{
				OFFSET 0.000000 -19.190928 -1.224953 
				CHANNELS 3 Xrotation Yrotation Zrotation
				End Site
				{
					OFFSET 0.000000 -2.449906 4.627600 
				}
			}
		}
	}
}
MOTION
Frames: 17
Frame Time: 0.033333
-104.981163 50.162621 28.842260 -1.612334 -10.781657 78.663757 0.000000 0.000000 0.000000 5.817441 -3.081549 5.486319 5.426622 -1.444699 1.670376 5.791227 6.065225 -4.516518 0.859475 -4.408548 5.799058 -39.072559 4.054243 -25.863035 -43.147919 -3.012122 22.647018 1.096648 5.019021 -3.503935 11.515323 5.030311 5.935184 26.129839 -13.786541 -23.297384 28.116316 4.330513 9.685626 -5.564921 -2.351677 -3.546553 -25.610512 0.458837 2.205992 34.659443 -1.059549 15.395902 -20.074148 -0.656145 3.628026 -19.514458 -12.153144 -5.169665 47.600346 2.296218 15.420515 -5.550336 -0.195007 4.192161 
-104.493652 49.817337 28.664686 -1.775478 -11.120039 78.481285 0.000000 0.000000 0.000000 6.238883 -2.855981 5.886176 5.341429 -1.376389 1.641090 5.770719 6.430218 -5.051306 1.386086 -4.467078 6.170450 -38.122280 2.847132 -28.775341 -42.482365 -2.695053 23.139833 1.948017 4.211625 -3.501670 11.841298 5.080518 6.272840 24.048880 -12.545610 -24.413933 25.583073 4.428362 8.800000 -5.505788 -2.357751 -3.547996 -26.662497 -0.478946 1.530523 37.274075 -0.011592 16.969730 -21.799166 -0.601698 3.087838 -20.640772 -12.165423 -4.657214 49.757889 1.905779 15.739168 -5.394706 -0.206793 4.440304 
-103.834160 49.420292 28.485683 -2.424476 -11.469234 78.010567 0.000000 0.000000 0.000000 6.293670 -2.250772 6.567387 5.227263 -0.898042 1.699316 5.492307 6.356583 -5.590487 1.975098 -3.636909 6.182506 -37.169731 2.096990 -30.826286 -42.190807 -2.670152 22.047472 3.941932 3.585846 -3.495598 12.339346 5.439528 6.177453 21.300615 -11.353260 -25.019442 22.256348 4.424719 8.734251 -5.158156 -1.677991 -3.563804 -27.271370 -1.084158 0.844744 39.531574 1.162906 19.402367 -23.383118 -0.246864 1.214380 -21.887505 -11.753626 -4.105852 52.399456 1.543480 16.074612 -4.264194 -0.182780 4.700460 
-102.943047 49.141037 28.294218 -2.723479 -11.375626 77.001762 0.000000 0.000000 0.000000 6.228996 -1.917937 7.298985 5.048133 -0.575817 2.011813 5.619957 6.062218 -5.852625 2.659588 -3.488243 6.081110 -34.987278 1.705536 -32.583454 -41.817005 -2.811275 20.054136 3.530000 3.617300 -3.488142 12.982886 5.294700 6.045932 18.386942 -9.704336 -25.279091 18.249416 4.596988 8.171900 -4.932056 -0.770917 -3.579694 -26.605770 -1.894385 0.502230 40.471134 1.985084 23.269569 -24.459045 0.246117 -1.035082 -23.094351 -11.639877 -3.477282 55.084839 0.881280 15.437779 -1.030005 -0.063858 6.231095 
-101.845329 48.923023 28.119465 -3.113645 -11.247730 75.969612 0.000000 0.000000 0.000000 5.813743 -1.450869 7.922312 4.600187 -0.214647 2.451155 6.106752 5.828451 -5.908901 3.396573 -2.369675 5.699476 -32.984150 1.510454 -33.199154 -40.587097 -2.843317 19.935957 3.294882 2.544689 -3.508637 13.708670 4.713460 5.596865 15.626472 -8.512764 -24.521439 14.689726 4.691764 8.893303 -4.602201 0.523946 -3.607994 -25.277258 -2.656133 0.115628 41.122574 2.744311 25.633402 -25.840763 0.539577 -2.282853 -24.175140 -11.433292 -2.731589 57.261166 0.362281 15.595836 2.861764 0.183707 7.181582 
-100.527924 48.929970 27.984663 -3.116004 -11.238383 75.201416 0.000000 0.000000 0.000000 4.870855 -1.179474 8.116921 3.988451 -0.117049 2.783197 6.707795 6.140149 -5.834239 3.657167 -0.588873 4.883243 -31.266191 2.066314 -32.553448 -38.824730 -2.727590 21.371586 2.783146 0.720085 -3.523723 13.341546 3.112764 4.810120 13.764285 -6.732363 -23.936575 11.920684 4.689109 10.173514 -3.485110 1.937663 -3.588471 -22.775333 -3.173310 0.028864 39.592758 2.903207 26.508959 -26.742046 0.740868 -3.148058 -24.672695 -11.745706 -2.463089 57.552841 0.255391 16.488379 4.907978 0.321170 7.257999 
-98.993813 49.212090 27.935120 -3.214223 -11.559479 74.762062 0.000000 0.000000 0.000000 3.381049 -0.774124 7.744749 2.895087 0.087777 2.910168 8.450964 5.622047 -5.131580 3.511494 1.728493 3.607608 -29.737103 3.521404 -30.697281 -36.919178 -2.657837 23.121471 2.184263 -1.001456 -3.516663 12.323092 0.721800 3.568069 13.599024 -5.205741 -23.242393 11.615087 4.813243 10.501330 -3.933482 2.222580 -3.614479 -18.803202 -2.567996 0.600552 35.178009 2.102708 25.464125 -27.001574 0.899978 -3.730295 -24.827700 -11.891494 -2.610034 56.108837 0.626181 17.242464 5.488402 0.335554 6.929545 
-97.261482 49.790894 27.924889 -4.245034 -12.119563 74.969582 0.000000 0.000000 0.000000 1.510017 0.388004 6.640803 1.794106 0.741300 2.803005 11.068251 5.182348 -4.059052 3.008020 5.034331 1.907902 -28.552691 6.330321 -27.246012 -35.825718 -2.781173 24.274364 1.350000 -2.589364 -3.486306 10.524960 -1.595533 1.825347 14.579291 -3.448598 -22.267511 12.508728 4.930263 10.932325 -4.436902 1.964820 -3.636667 -12.979848 -0.976210 1.456003 27.534502 1.261409 22.903231 -26.120993 0.661299 -2.946599 -24.215685 -11.512292 -3.692513 52.750839 1.699761 16.727526 6.644032 0.480550 7.558491 
-95.278358 50.672276 27.964680 -5.746133 -12.340833 75.124252 0.000000 0.000000 0.000000 -0.470549 1.866914 5.325159 1.404763 1.492174 2.940490 13.458513 4.779498 -2.792232 2.488189 8.606915 0.078633 -27.535465 9.261786 -23.209229 -34.201946 -2.947512 25.434614 1.101355 -4.180038 -3.460462 8.608482 -3.167456 -0.086767 15.310559 -1.504730 -19.758839 12.928305 5.160492 11.238190 -4.083170 1.624715 -3.619048 -6.796482 0.664367 2.356652 20.272327 0.426562 18.566933 -22.538239 0.073059 -0.451418 -22.542860 -10.739073 -5.116194 48.223999 2.791572 13.381760 12.078323 1.060655 10.355951 
-93.160675 51.817528 28.039936 -6.850400 -11.830110 75.233009 0.000000 0.000000 0.000000 -2.121619 2.862495 4.439268 2.053286 1.715830 3.341561 14.260530 4.987240 -1.989346 2.462648 11.280167 -1.454398 -26.391985 9.859607 -20.175304 -31.518177 -3.031046 26.795944 1.007004 -5.242488 -3.448080 7.902897 -4.596943 -1.590403 15.888743 -1.784756 -16.733980 13.238333 5.231309 11.574647 -2.613955 1.620159 -3.552280 -6.819873 1.970174 3.655019 25.034155 -0.058458 14.791783 -13.945046 -0.040602 0.241513 -19.793053 -10.360297 -6.555310 43.860359 3.037081 6.193914 23.215475 3.195426 15.331041 
-91.145828 53.032951 28.115297 -6.913946 -10.532254 75.453667 0.000000 0.000000 0.000000 -2.895764 2.766227 4.135934 3.206868 1.296246 3.614344 14.244629 5.534524 -1.755907 2.478726 11.997457 -2.145530 -24.127159 8.537680 -18.740690 -28.671618 -3.256918 26.613850 1.212952 -5.915160 -3.457940 7.994756 -6.084206 -2.206082 16.662924 -4.144680 -13.716849 13.608350 5.587445 9.086596 -3.326276 1.262116 -3.574068 -8.602814 2.871118 5.352839 31.263971 -1.214483 14.092145 -0.536679 0.083605 -0.166652 -16.415092 -10.975885 -7.064146 39.553886 2.636261 1.481311 32.020454 5.567232 19.333086 
-89.359245 54.112286 28.246157 -7.339990 -9.596093 76.750023 0.000000 0.000000 0.000000 -3.284909 2.631099 3.744355 4.148749 1.199318 3.184327 14.596894 5.573627 -1.736465 2.360162 11.814337 -2.503592 -20.743008 5.935430 -18.503626 -25.558252 -3.636168 24.862299 2.617592 -6.280647 -3.570992 7.724089 -6.213583 -2.509765 17.020302 -7.532271 -10.845043 13.913013 6.149158 5.231412 -5.436326 0.400344 -3.637948 -12.339020 5.212110 7.448725 37.120064 -2.388082 16.580441 14.020975 -0.426357 -3.447206 -12.341423 -10.622531 -6.559218 32.610252 1.552082 -1.951998 39.911133 8.454649 23.020321 
-87.791885 54.558357 28.459972 -8.220638 -9.619691 79.558395 0.000000 0.000000 0.000000 -3.705149 2.701325 3.021125 4.357582 1.298176 1.817046 14.075640 5.289135 -2.186462 2.250067 11.455184 -2.909482 -16.613529 1.795906 -19.279371 -22.261600 -4.300210 20.441681 4.531785 -5.466155 -3.718187 6.646133 -5.888701 -2.884265 16.860788 -10.837007 -10.077491 11.885725 6.223204 5.562776 -5.100487 1.138414 -3.639822 -19.117527 8.337813 8.461616 44.743336 -2.587694 16.348915 14.985170 -0.528666 -4.223086 -8.494716 -9.558664 -5.712760 26.259233 1.142599 0.158523 43.063477 10.144828 25.431746 
-86.376801 54.613632 28.557791 -9.030389 -10.236560 82.889557 0.000000 0.000000 0.000000 -3.649427 2.907679 2.366677 4.246604 0.976527 0.488377 11.334861 6.064460 -3.260134 2.507759 10.542426 -2.909140 -11.917468 -3.993318 -21.586485 -17.220535 -4.607434 18.516417 7.459280 -5.530742 -3.955325 5.640094 -5.540854 -2.849300 15.518625 -12.363771 -10.406293 4.445743 6.158357 6.739654 -3.396087 2.559804 -3.600825 -26.581934 9.462844 7.247657 46.003559 -2.268471 16.232224 7.463732 -0.074787 -0.828108 -5.418958 -8.611159 -5.191274 21.847965 0.849337 2.467037 42.809418 10.442774 26.116564 
-85.033752 54.203239 28.693674 -8.622389 -9.515675 84.948586 0.000000 0.000000 0.000000 -2.082652 1.882367 2.892272 4.269159 -0.185540 -0.488310 10.341884 7.949373 -4.928967 3.170320 7.480549 -1.466045 -4.107099 -11.190101 -24.717255 -9.194543 -4.866579 18.999146 11.785842 -6.805553 -4.412154 5.217601 -5.682569 -1.367257 14.799153 -14.974879 -10.154030 -0.192910 6.078890 7.266498 -3.795090 2.202014 -3.607303 -29.083527 8.502681 4.524395 35.845516 -2.657428 10.495501 5.667522 -0.025153 -0.787292 -3.378639 -8.875753 -5.155135 22.764273 0.166398 4.634175 39.959713 9.402137 25.399799 
-83.511047 53.149925 28.822170 -8.018439 -6.659398 85.317406 0.000000 0.000000 0.000000 0.875884 0.360372 4.170023 5.028736 -0.683532 -0.771546 11.520861 9.053289 -5.952928 3.643082 5.572875 1.311065 3.390114 -16.350058 -28.681847 -1.989586 -4.555697 21.113329 14.234293 -8.355887 -4.784880 5.865202 -5.466341 1.376701 14.798710 -19.026228 -9.509340 0.138377 5.699076 7.987103 -5.736759 1.135864 -3.665773 -27.181284 7.439789 1.831432 22.804556 -2.376252 5.220737 6.660751 -0.111065 -2.007097 -0.205758 -9.862578 -6.142851 27.035269 -0.098555 7.247670 36.452595 8.065068 24.181049 
-81.861214 51.591927 28.864908 -8.627851 -3.893130 83.825684 0.000000 0.000000 0.000000 3.422692 -0.048567 5.927733 6.911605 -0.400383 0.351554 8.120923 8.962756 -6.702676 4.198555 5.981689 3.650815 6.587493 -16.915239 -32.808056 -2.115619 -4.008201 22.085093 13.545412 -8.451378 -4.733753 7.676735 -4.361138 3.662364 13.856152 -21.635330 -9.196581 0.120629 5.400946 8.620821 -7.217896 1.330719 -3.740009 -26.651798 8.112772 0.896109 20.810944 -0.891671 4.558225 3.271498 0.065532 -0.287250 2.195123 -10.697121 -7.582988 33.738182 0.134764 9.307947 31.576729 6.140970 21.368402 
